<svg xmlns="http://www.w3.org/2000/svg" viewBox="80 220 430 140"><rect height="100%" width="100%" x="20" y="161.12082733818528" fill="rgba(255, 255, 255, 0)"/> <svg xmlns="http://www.w3.org/2000/svg" xmlns:xlink="http://www.w3.org/1999/xlink" version="1.1" id="Layer_1" x="90" y="231.12082733818528" viewBox="192.9990692138672 327.87738037109375 207.34092712402344 187.422607421875" xml:space="preserve" height="112.75834532362946" width="124.75968454328215" preserveAspectRatio="xMinYMin" enable-background="new 0 0 595.28 841.89" style="overflow: visible;"><path class="st0" d="M318.06,378.01c0,0,9.41,16.28,3.51,27.37c-5.9,11.09-26.95,10.39-35.66,1.26   c-27.88-29.23,11.34-89.77,52.28-58.87c13.31,10.04,23.67,9.32,31.39,7.92c7.72-1.4,14.32-0.84,15.86,13.62s-3.34,23.51-24,29.8   c-20.66,6.3-11.95,26.44-5.83,40.55c6.13,14.11,7.59,35.92-1.69,47.62c-9.28,11.7-12.44,22.65-12.44,22.65s24.69,2.97,31.38,1.11   c6.68-1.86,13.74-14.48,5.76-19.68c-7.98-5.2-18.38-0.19-18.38-0.19s10.95-11.33,8.17-29.71c-2.78-18.38-13.18-36.57-13.74-44.19   c-0.56-7.61,8.11-12.06,22.27-13.89c14.16-1.83,26.09-12.33,22.87-31c-3.23-18.67-5.76-32.71-19.65-30.04   c-13.9,2.67-23.59,3.09-34.68-4.07c-68.23-44.05-107.18,65.2-59.36,81.01c19.05,6.3,37.13,2.1,42.3-6.94   C332.16,405.78,327.87,378.51,318.06,378.01L318.06,378.01z" style="fill-rule: evenodd; clip-rule: evenodd; fill: #AD8057;"></path><path class="st1" d="M317.59,468.94c7.16,16.15-15.04,35.27-15.04,35.27s9.83-8,16.43-9.69c6.6-1.68,16.43,7.72,12.92,13.2   c-3.51,5.48-13.34,7.58-27.24,7.58c-13.9,0-52.65,0-52.65,0s41.98-7.58,49.42-21.48c7.44-13.9-4.21-31.03-16.43-30.19   c-12.22,0.84-13.9,16.71-8.14,19.09c0,0-8.56-0.7-10.67-9.97C261.48,452.06,305.43,441.51,317.59,468.94L317.59,468.94z" style="fill-rule: evenodd; clip-rule: evenodd; fill: #5C3A1B;"></path><path class="st1" d="M306.63,431.49c0,0-31.75,4.27-44.01,23.95c-12.26,19.68-8.91,47.35-20.43,53.29   c-11.51,5.94-33.1,5.21-45.17-15.96c-12.07-21.17,5.57-50.51,19.5-53.11c13.93-2.6,13.74,11.7,1.67,18.38   c-14.97,8.29-15.85,18.21-14.25,26.66c2.46,12.93,15.47,22.41,29.85,17.35c8.52-3,6.74-19.32,12.4-36.35   C253.22,444.57,269.61,422.93,306.63,431.49L306.63,431.49z" style="fill-rule: evenodd; clip-rule: evenodd; fill: #5C3A1B;"></path></svg> <svg xmlns="http://www.w3.org/2000/svg" x="230.49025346395683" y="326.185537226522" viewBox="1.5799999237060547 2.3399999141693115 122.8699951171875 17.53999900817871" height="17.53999900817871" width="122.8699951171875" style="overflow: visible;"><g fill="#AD8057" fill-opacity="1" style=""><path d="M3.05 16.01L1.58 16.01L1.58 3.09L7.40 3.09Q9.47 3.09 10.66 4.21Q11.85 5.33 11.85 7.24L11.85 7.24Q11.85 9.16 10.66 10.28Q9.47 11.40 7.40 11.40L7.40 11.40L3.05 11.40L3.05 16.01ZM3.05 4.47L3.05 10.04L7.30 10.04Q8.83 10.04 9.61 9.30Q10.39 8.55 10.39 7.24L10.39 7.24Q10.39 5.96 9.61 5.21Q8.83 4.47 7.30 4.47L7.30 4.47L3.05 4.47ZM17.65 16.17L17.65 16.17Q16.23 16.17 15.16 15.50Q14.10 14.82 13.51 13.67Q12.93 12.52 12.93 11.13L12.93 11.13Q12.93 9.72 13.51 8.58Q14.10 7.44 15.16 6.77Q16.23 6.09 17.65 6.09L17.65 6.09Q18.86 6.09 19.73 6.56Q20.60 7.03 21.15 7.83L21.15 7.83L21.15 6.25L22.61 6.25L22.61 16.01L21.15 16.01L21.15 14.45Q20.60 15.23 19.73 15.70Q18.86 16.17 17.65 16.17ZM17.85 14.84L17.85 14.84Q18.94 14.84 19.69 14.33Q20.45 13.83 20.84 12.98Q21.23 12.13 21.23 11.13L21.23 11.13Q21.23 10.12 20.84 9.28Q20.45 8.44 19.69 7.93Q18.94 7.42 17.85 7.42L17.85 7.42Q16.77 7.42 15.99 7.93Q15.21 8.44 14.80 9.28Q14.39 10.12 14.39 11.13L14.39 11.13Q14.39 12.13 14.80 12.98Q15.21 13.83 15.99 14.33Q16.77 14.84 17.85 14.84ZM26.62 16.01L25.15 16.01L25.15 6.25L26.62 6.25L26.62 8.65Q26.69 8.40 26.92 7.98Q27.14 7.56 27.57 7.13Q28.00 6.70 28.66 6.40Q29.31 6.09 30.21 6.09L30.21 6.09L30.31 6.09L30.31 7.56L30.13 7.56Q29.04 7.56 28.25 8.15Q27.46 8.75 27.04 9.70Q26.62 10.64 26.62 11.72L26.62 11.72L26.62 16.01ZM33.35 16.01L31.89 16.01L31.89 2.34L33.35 2.34L33.35 11.09L38.06 6.25L40.11 6.25L36.18 10.10L40.40 16.01L38.61 16.01L35.19 11.11L33.35 12.93L33.35 16.01ZM48.45 19.88L46.87 19.88L48.64 15.88L44.66 6.25L46.28 6.25L49.42 14.26L52.63 6.25L54.23 6.25L48.45 19.88ZM59.60 16.17L59.60 16.17Q58.11 16.17 57.02 15.50Q55.93 14.82 55.34 13.67Q54.76 12.52 54.76 11.13L54.76 11.13Q54.76 9.72 55.34 8.58Q55.93 7.44 57.02 6.77Q58.11 6.09 59.60 6.09L59.60 6.09Q61.10 6.09 62.19 6.77Q63.27 7.44 63.86 8.58Q64.44 9.72 64.44 11.13L64.44 11.13Q64.44 12.52 63.86 13.67Q63.27 14.82 62.19 15.50Q61.10 16.17 59.60 16.17ZM59.60 14.84L59.60 14.84Q60.69 14.84 61.44 14.33Q62.20 13.83 62.59 12.98Q62.98 12.13 62.98 11.13L62.98 11.13Q62.98 10.12 62.59 9.28Q62.20 8.44 61.44 7.93Q60.69 7.42 59.60 7.42L59.60 7.42Q58.52 7.42 57.76 7.93Q57.00 8.44 56.61 9.28Q56.22 10.12 56.22 11.13L56.22 11.13Q56.22 12.13 56.61 12.98Q57.00 13.83 57.76 14.33Q58.52 14.84 59.60 14.84ZM70.18 16.17L70.18 16.17Q69.19 16.17 68.29 15.69Q67.39 15.21 66.83 14.26Q66.28 13.32 66.28 11.93L66.28 11.93L66.28 6.25L67.74 6.25L67.74 11.89Q67.74 13.22 68.51 14.03Q69.28 14.84 70.48 14.84L70.48 14.84Q71.30 14.84 71.96 14.46Q72.62 14.08 73.02 13.42Q73.42 12.75 73.42 11.87L73.42 11.87L73.42 6.25L74.89 6.25L74.89 16.01L73.42 16.01L73.42 14.49Q72.90 15.19 72.13 15.68Q71.37 16.17 70.18 16.17ZM78.89 16.01L77.43 16.01L77.43 6.25L78.89 6.25L78.89 8.65Q78.97 8.40 79.19 7.98Q79.42 7.56 79.85 7.13Q80.28 6.70 80.93 6.40Q81.59 6.09 82.48 6.09L82.48 6.09L82.58 6.09L82.58 7.56L82.41 7.56Q81.31 7.56 80.52 8.15Q79.73 8.75 79.31 9.70Q78.89 10.64 78.89 11.72L78.89 11.72L78.89 16.01ZM89.79 19.88L88.32 19.88L88.32 6.25L89.79 6.25L89.79 7.81Q90.33 7.01 91.20 6.55Q92.07 6.09 93.28 6.09L93.28 6.09Q94.71 6.09 95.77 6.77Q96.84 7.44 97.42 8.58Q98.01 9.72 98.01 11.13L98.01 11.13Q98.01 12.52 97.42 13.67Q96.84 14.82 95.77 15.50Q94.71 16.17 93.28 16.17L93.28 16.17Q92.07 16.17 91.20 15.69Q90.33 15.21 89.79 14.43L89.79 14.43L89.79 19.88ZM93.09 14.84L93.09 14.84Q94.18 14.84 94.95 14.33Q95.72 13.83 96.13 12.98Q96.54 12.13 96.54 11.13L96.54 11.13Q96.54 10.12 96.13 9.28Q95.72 8.44 94.95 7.93Q94.18 7.42 93.09 7.42L93.09 7.42Q92.01 7.42 91.25 7.93Q90.49 8.44 90.10 9.28Q89.71 10.12 89.71 11.13L89.71 11.13Q89.71 12.13 90.10 12.98Q90.49 13.83 91.25 14.33Q92.01 14.84 93.09 14.84ZM103.75 16.17L103.75 16.17Q102.75 16.17 101.86 15.69Q100.96 15.21 100.40 14.26Q99.84 13.32 99.84 11.93L99.84 11.93L99.84 6.25L101.31 6.25L101.31 11.89Q101.31 13.22 102.08 14.03Q102.85 14.84 104.04 14.84L104.04 14.84Q104.86 14.84 105.53 14.46Q106.19 14.08 106.59 13.42Q106.99 12.75 106.99 11.87L106.99 11.87L106.99 6.25L108.46 6.25L108.46 16.01L106.99 16.01L106.99 14.49Q106.46 15.19 105.70 15.68Q104.94 16.17 103.75 16.17ZM112.46 19.88L110.99 19.88L110.99 6.25L112.46 6.25L112.46 7.81Q113.01 7.01 113.88 6.55Q114.74 6.09 115.95 6.09L115.95 6.09Q117.38 6.09 118.44 6.77Q119.51 7.44 120.09 8.58Q120.68 9.72 120.68 11.13L120.68 11.13Q120.68 12.52 120.09 13.67Q119.51 14.82 118.44 15.50Q117.38 16.17 115.95 16.17L115.95 16.17Q114.74 16.17 113.88 15.69Q113.01 15.21 112.46 14.43L112.46 14.43L112.46 19.88ZM115.76 14.84L115.76 14.84Q116.85 14.84 117.62 14.33Q118.40 13.83 118.81 12.98Q119.22 12.13 119.22 11.13L119.22 11.13Q119.22 10.12 118.81 9.28Q118.40 8.44 117.62 7.93Q116.85 7.42 115.76 7.42L115.76 7.42Q114.69 7.42 113.92 7.93Q113.16 8.44 112.77 9.28Q112.38 10.12 112.38 11.13L112.38 11.13Q112.38 12.13 112.77 12.98Q113.16 13.83 113.92 14.33Q114.69 14.84 115.76 14.84ZM124.04 12.44L122.97 12.44L122.59 3.09L124.41 3.09L124.04 12.44ZM124.45 16.01L122.56 16.01L122.56 14.02L124.45 14.02L124.45 16.01Z" transform="translate(0, 0)"></path></g></svg> <svg xmlns="http://www.w3.org/2000/svg" x="230.49025346395683" y="282.79085798526063" viewBox="1.9200000762939453 9.369999885559082 254.50999450683594 44.36000061035156" height="44.36000061035156" width="254.50999450683594" style="overflow: visible;"><g fill="#5C3A1B" fill-opacity="1" style=""><path d="M11.70 44.46L1.92 44.46L1.92 12.22L11.75 12.22Q14.65 12.22 16.77 12.81Q18.89 13.41 20.32 14.47Q21.74 15.53 22.44 17.03Q23.14 18.53 23.14 20.34L23.14 20.34Q23.14 21.69 22.62 23.09Q22.10 24.48 21.07 25.60Q20.03 26.71 18.58 27.33L18.58 27.33Q19.88 27.90 20.96 28.73Q22.05 29.56 22.83 30.57Q23.60 31.57 23.99 32.74Q24.38 33.90 24.38 35.15L24.38 35.15Q24.38 37.22 23.60 38.95Q22.83 40.68 21.25 41.90Q19.67 43.12 17.29 43.79Q14.91 44.46 11.70 44.46L11.70 44.46ZM7.76 29.76L7.76 39.65L12.32 39.65Q14.18 39.65 15.53 39.11Q16.87 38.56 17.60 37.53Q18.32 36.49 18.32 34.99L18.32 34.99Q18.32 33.44 17.65 32.27Q16.98 31.11 15.48 30.44Q13.98 29.76 11.44 29.76L11.44 29.76L7.76 29.76ZM7.76 16.93L7.76 25.10L11.28 25.10Q13.56 25.10 14.86 24.56Q16.15 24.02 16.69 23.06Q17.24 22.10 17.24 20.86L17.24 20.86Q17.24 19.98 16.93 19.26Q16.62 18.53 15.97 18.04Q15.32 17.55 14.29 17.24Q13.25 16.93 11.80 16.93L11.80 16.93L7.76 16.93ZM36.13 45.08L36.13 45.08Q32.14 45.08 29.94 43.19Q27.74 41.31 27.74 38.30L27.74 38.30Q27.74 36.39 28.60 34.76Q29.45 33.13 31.16 31.94Q32.87 30.75 35.40 30.10Q37.94 29.45 41.20 29.45L41.20 29.45Q41.62 29.45 42.24 29.45Q42.86 29.45 43.58 29.48Q44.31 29.50 44.93 29.61L44.93 29.61L45.08 33.64Q44.57 33.59 43.84 33.57Q43.12 33.54 42.37 33.52Q41.62 33.49 41.10 33.49L41.10 33.49Q39.03 33.49 37.60 33.80Q36.18 34.11 35.30 34.65Q34.42 35.20 34.01 35.95Q33.59 36.70 33.59 37.58L33.59 37.58Q33.59 38.41 33.88 38.98Q34.16 39.55 34.65 39.88Q35.15 40.22 35.82 40.37Q36.49 40.53 37.27 40.53L37.27 40.53Q38.82 40.53 39.99 40.04Q41.15 39.55 41.95 38.46Q42.75 37.37 43.14 35.74Q43.53 34.11 43.53 31.88L43.53 31.88Q43.53 28.88 42.91 27.28Q42.29 25.67 41.10 25.03Q39.91 24.38 38.10 24.38L38.10 24.38Q36.44 24.38 34.96 24.92Q33.49 25.47 32.09 26.92L32.09 26.92L28.88 23.40Q30.90 21.48 33.39 20.65Q35.87 19.82 38.36 19.82L38.36 19.82Q40.63 19.82 42.60 20.34Q44.57 20.86 46.04 22.08Q47.52 23.29 48.37 25.39Q49.22 27.49 49.22 30.59L49.22 30.59L49.22 44.46L43.17 44.46L43.17 41.87Q42.50 42.75 41.72 43.38Q40.94 44.00 40.06 44.36Q39.18 44.72 38.20 44.90Q37.22 45.08 36.13 45.08ZM56.37 44.46L56.37 20.39L62.42 20.39L62.37 27.12L61.70 26.71Q61.91 25.10 62.61 23.86Q63.30 22.62 64.37 21.69Q65.43 20.76 66.69 20.29Q67.96 19.82 69.31 19.82L69.31 19.82Q71.33 19.82 72.96 20.47Q74.59 21.12 75.99 22.57L75.99 22.57L73.50 27.49L73.35 27.90L72.88 27.69Q72.72 27.28 72.57 26.84Q72.41 26.40 71.79 25.83L71.79 25.83Q71.07 25.26 70.27 24.95Q69.46 24.64 68.53 24.64L68.53 24.64Q67.29 24.64 66.15 25.05Q65.01 25.47 64.16 26.35Q63.30 27.23 62.81 28.60Q62.32 29.97 62.32 31.83L62.32 31.83L62.32 44.46L56.37 44.46ZM96.43 44.67L88.20 33.54L86.29 35.46L86.29 44.46L80.33 44.46L80.33 9.73L86.23 9.73L86.70 9.73L86.70 10.20Q86.44 10.51 86.36 10.87Q86.29 11.23 86.29 12.11L86.29 12.11L86.29 29.09L95.50 20.19Q95.91 20.24 96.38 20.32Q96.85 20.39 97.31 20.45Q97.78 20.50 98.24 20.52Q98.71 20.55 99.02 20.55L99.02 20.55L101.81 20.55L92.24 29.92L103.11 44.41L96.43 44.67ZM125.06 44.46L107.87 44.46L107.87 39.86L113.77 39.86L113.77 25.00L108.18 25.00L108.18 20.39L119.67 20.39L119.67 39.86L125.06 39.86L125.06 44.46ZM116.46 16.41L116.46 16.41Q114.96 16.41 113.87 15.37Q112.79 14.34 112.79 12.89L112.79 12.89Q112.79 11.34 113.82 10.35Q114.86 9.37 116.46 9.37L116.46 9.37Q117.91 9.37 119.02 10.40Q120.14 11.44 120.14 12.89L120.14 12.89Q120.14 14.34 119.02 15.37Q117.91 16.41 116.46 16.41ZM138.10 44.46L132.25 44.46L132.25 20.39L138.10 20.39L138.10 23.71Q138.98 22.57 140.01 21.69Q141.05 20.81 142.32 20.32Q143.59 19.82 145.04 19.82L145.04 19.82Q147.16 19.82 148.92 20.83Q150.68 21.84 151.76 24.07Q152.85 26.29 152.85 29.92L152.85 29.92L152.85 44.46L147.00 44.46L147.00 30.02Q147.00 28.00 146.59 26.76Q146.17 25.52 145.37 24.92Q144.57 24.33 143.48 24.33L143.48 24.33Q142.50 24.33 141.54 24.72Q140.58 25.10 139.81 25.88Q139.03 26.66 138.56 27.72Q138.10 28.78 138.10 30.13L138.10 30.13L138.10 44.46ZM167.65 53.73L167.65 53.73Q165.07 53.73 163.05 53.26Q161.03 52.80 159.63 51.97Q158.23 51.14 157.48 49.98Q156.73 48.81 156.73 47.36L156.73 47.36Q156.73 46.12 157.35 45.03Q157.98 43.95 159.04 43.14Q160.10 42.34 161.34 41.87L161.34 41.87L163.98 42.96Q163.31 43.48 162.66 43.97Q162.01 44.46 161.62 45.06Q161.24 45.65 161.24 46.48L161.24 46.48Q161.24 47.15 161.75 47.67Q162.27 48.19 163.20 48.53Q164.13 48.86 165.38 49.02Q166.62 49.17 168.12 49.17L168.12 49.17Q170.09 49.17 171.43 48.81Q172.78 48.45 173.50 47.80Q174.23 47.15 174.23 46.33L174.23 46.33Q174.23 45.55 173.81 45.06Q173.40 44.57 172.31 44.36Q171.23 44.15 169.26 44.15L169.26 44.15Q167.60 44.15 166.00 44.00Q164.39 43.84 162.97 43.48Q161.55 43.12 160.46 42.52Q159.37 41.93 158.78 41.05Q158.18 40.17 158.18 38.92L158.18 38.92Q158.18 37.22 159.19 35.97Q160.20 34.73 161.65 33.70L161.65 33.70L164.34 35.25Q163.82 35.72 163.44 36.03Q163.05 36.34 162.84 36.62Q162.63 36.91 162.63 37.42L162.63 37.42Q162.63 38.04 163.44 38.46Q164.24 38.87 166.08 39.08Q167.91 39.29 170.86 39.29L170.86 39.29Q173.19 39.29 174.75 39.78Q176.30 40.27 177.23 41.18Q178.16 42.08 178.60 43.25Q179.04 44.41 179.04 45.71L179.04 45.71Q179.04 47.26 178.37 48.68Q177.70 50.10 176.30 51.24Q174.90 52.38 172.75 53.06Q170.61 53.73 167.65 53.73ZM167.19 36.34L167.19 36.34Q164.65 36.34 162.61 35.25Q160.56 34.16 159.40 32.27Q158.23 30.38 158.23 28.05L158.23 28.05Q158.23 25.73 159.40 23.84Q160.56 21.95 162.61 20.81Q164.65 19.67 167.19 19.67L167.19 19.67Q169.78 19.67 171.77 20.81Q173.76 21.95 174.93 23.84Q176.09 25.73 176.09 28.05L176.09 28.05Q176.09 30.38 174.93 32.27Q173.76 34.16 171.77 35.25Q169.78 36.34 167.19 36.34ZM167.14 32.09L167.14 32.09Q168.28 32.09 169.18 31.57Q170.09 31.06 170.63 30.13Q171.17 29.19 171.17 28.05L171.17 28.05Q171.17 26.92 170.63 26.04Q170.09 25.16 169.18 24.64Q168.28 24.12 167.14 24.12L167.14 24.12Q166.10 24.12 165.20 24.66Q164.29 25.21 163.72 26.09Q163.15 26.97 163.15 28.05L163.15 28.05Q163.15 29.14 163.69 30.07Q164.24 31.00 165.14 31.55Q166.05 32.09 167.14 32.09ZM174.64 24.79L174.64 24.79L172.42 22.05Q173.87 20.86 175.73 20.24Q177.59 19.62 179.77 19.77L179.77 19.77L180.34 23.81Q178.78 23.50 177.28 23.76Q175.78 24.02 174.64 24.79ZM184.11 44.46L184.11 12.22L189.96 12.22L190.48 12.22L190.48 12.68Q190.17 12.99 190.09 13.35Q190.02 13.72 190.02 14.60L190.02 14.60L190.02 39.70L204.82 39.70L204.82 44.46L184.11 44.46ZM219.93 44.98L219.93 44.98Q216.72 44.98 214.11 43.40Q211.50 41.82 210.00 38.98Q208.49 36.13 208.49 32.40L208.49 32.40Q208.49 28.83 210.00 25.98Q211.50 23.14 214.11 21.48Q216.72 19.82 219.93 19.82L219.93 19.82Q223.19 19.82 225.81 21.48Q228.42 23.14 229.95 25.98Q231.48 28.83 231.48 32.40L231.48 32.40Q231.48 36.13 229.95 38.98Q228.42 41.82 225.81 43.40Q223.19 44.98 219.93 44.98ZM219.93 40.32L219.93 40.32Q221.64 40.32 222.88 39.31Q224.13 38.30 224.88 36.52Q225.63 34.73 225.63 32.40L225.63 32.40Q225.63 29.97 224.88 28.21Q224.13 26.45 222.88 25.49Q221.64 24.53 219.93 24.53L219.93 24.53Q218.38 24.53 217.11 25.49Q215.84 26.45 215.09 28.21Q214.34 29.97 214.34 32.40L214.34 32.40Q214.34 34.73 215.07 36.52Q215.79 38.30 217.06 39.31Q218.33 40.32 219.93 40.32ZM248.40 44.98L248.40 44.98Q246.33 44.98 244.80 44.31Q243.28 43.63 242.27 42.13Q241.26 40.63 240.82 38.15Q240.38 35.66 240.53 31.99L240.53 31.99L241.21 14.70L247.26 13.92L247.73 13.87L247.78 14.34Q247.57 14.70 247.37 15.06Q247.16 15.42 247.11 16.30L247.11 16.30L246.54 23.45L246.80 23.81L246.38 31.88Q246.23 35.25 246.62 37.09Q247.00 38.92 247.81 39.60Q248.61 40.27 249.75 40.27L249.75 40.27Q251.40 40.27 252.72 39.60Q254.04 38.92 255.18 38.04L255.18 38.04L256.43 42.29Q254.67 43.58 252.67 44.28Q250.68 44.98 248.40 44.98L248.40 44.98ZM235.88 25.00L235.98 20.39L254.51 20.39L254.46 25.00L235.88 25.00Z" transform="translate(0, 0)"></path></g></svg></svg>
