<svg xmlns="http://www.w3.org/2000/svg" viewBox="80 220 145 130">
<rect height="100%" width="100%" x="20" y="20" fill="rgba(255, 255, 255, 1)"/> 
<svg xmlns="http://www.w3.org/2000/svg" xmlns:xlink="http://www.w3.org/1999/xlink" version="1.1" id="Layer_1" x="90" y="231.12082733818528" viewBox="192.9990692138672 327.87738037109375 207.34092712402344 187.422607421875" xml:space="preserve" height="112.75834532362946" width="124.75968454328215" preserveAspectRatio="xMinYMin" enable-background="new 0 0 595.28 841.89" style="overflow: visible;">
<path class="st0" d="M318.06,378.01c0,0,9.41,16.28,3.51,27.37c-5.9,11.09-26.95,10.39-35.66,1.26   c-27.88-29.23,11.34-89.77,52.28-58.87c13.31,10.04,23.67,9.32,31.39,7.92c7.72-1.4,14.32-0.84,15.86,13.62s-3.34,23.51-24,29.8   c-20.66,6.3-11.95,26.44-5.83,40.55c6.13,14.11,7.59,35.92-1.69,47.62c-9.28,11.7-12.44,22.65-12.44,22.65s24.69,2.97,31.38,1.11   c6.68-1.86,13.74-14.48,5.76-19.68c-7.98-5.2-18.38-0.19-18.38-0.19s10.95-11.33,8.17-29.71c-2.78-18.38-13.18-36.57-13.74-44.19   c-0.56-7.61,8.11-12.06,22.27-13.89c14.16-1.83,26.09-12.33,22.87-31c-3.23-18.67-5.76-32.71-19.65-30.04   c-13.9,2.67-23.59,3.09-34.68-4.07c-68.23-44.05-107.18,65.2-59.36,81.01c19.05,6.3,37.13,2.1,42.3-6.94   C332.16,405.78,327.87,378.51,318.06,378.01L318.06,378.01z" style="fill-rule: evenodd; clip-rule: evenodd; fill: #AD8057;">
</path>
<path class="st1" d="M317.59,468.94c7.16,16.15-15.04,35.27-15.04,35.27s9.83-8,16.43-9.69c6.6-1.68,16.43,7.72,12.92,13.2   c-3.51,5.48-13.34,7.58-27.24,7.58c-13.9,0-52.65,0-52.65,0s41.98-7.58,49.42-21.48c7.44-13.9-4.21-31.03-16.43-30.19   c-12.22,0.84-13.9,16.71-8.14,19.09c0,0-8.56-0.7-10.67-9.97C261.48,452.06,305.43,441.51,317.59,468.94L317.59,468.94z" style="fill-rule: evenodd; clip-rule: evenodd; fill: #5C3A1B;">
</path>
<path class="st1" d="M306.63,431.49c0,0-31.75,4.27-44.01,23.95c-12.26,19.68-8.91,47.35-20.43,53.29   c-11.51,5.94-33.1,5.21-45.17-15.96c-12.07-21.17,5.57-50.51,19.5-53.11c13.93-2.6,13.74,11.7,1.67,18.38   c-14.97,8.29-15.85,18.21-14.25,26.66c2.46,12.93,15.47,22.41,29.85,17.35c8.52-3,6.74-19.32,12.4-36.35   C253.22,444.57,269.61,422.93,306.63,431.49L306.63,431.49z" style="fill-rule: evenodd; clip-rule: evenodd; fill: #5C3A1B;">
</path>
</svg> 
</svg>
